<?xml version="1.0" encoding="UTF-8" standalone="no"?>
<svg xmlns="http://www.w3.org/2000/svg" width="44" height="34" viewBox="0 0 44 34" fill="none">
  <title>Elektrische wagen EV</title>
  <path d="M6 20L10 12C10.6 10.8 11.8 10 13.2 10H28.8C30.2 10 31.4 10.8 32 12L36 20" stroke="#000000" stroke-width="1.5" stroke-linejoin="round"/>
  <rect x="4" y="20" width="34" height="8" rx="2" stroke="#000000" stroke-width="1.5"/>
  <circle cx="12" cy="28" r="3" stroke="#000000" stroke-width="1.5"/>
  <circle cx="30" cy="28" r="3" stroke="#000000" stroke-width="1.5"/>
  <path d="M38 8H41C41.6 8 42 8.4 42 9V13C42 13.6 41.6 14 41 14H38" stroke="#000000" stroke-width="1.5" stroke-linecap="round"/>
  <path d="M20 14H23L21.5 17H24L20 23L21.2 19H18.5L20 14Z" fill="#000000"/>
</svg>
