<?xml version="1.0" encoding="UTF-8" standalone="no"?>
<!DOCTYPE svg PUBLIC "-//W3C//DTD SVG 1.1//EN" "http://www.w3.org/Graphics/SVG/1.1/DTD/svg11.dtd">
<svg xmlns="http://www.w3.org/2000/svg" xmlns:xlink="http://www.w3.org/1999/xlink" xmlns:ev="http://www.w3.org/2001/xml-events"
		width="0.232in" height="0.134567in" viewBox="0 0 16.7 9.68882" xml:space="preserve"
		color-interpolation-filters="sRGB" class="st2">
	<title>Quadruple wall outlet</title>

	<style type="text/css">
	<![CDATA[
		.st1 {stroke:#000000;stroke-linecap:round;stroke-linejoin:round;stroke-width:0.24}
		.st2 {fill:none;fill-rule:evenodd;font-size:12px;overflow:visible;stroke-linecap:square;stroke-miterlimit:3}
	]]>
	</style>

	<g>
		<title>Quadruple wall outlet</title>
		<g id="1" transform="translate(0.12,-0.12)">
			<title>Quadruple wall outlet</title>
			<path d="M0 4.96 A2.06 2.06 -90 0 0 2.06 7.02 A2.06 2.06 -90 0 0 4.12 4.96" class="st1"/>
			<path d="M4.12 4.96 A2.06 2.06 -90 0 0 6.18 7.02 A2.06 2.06 -90 0 0 8.24 4.96" class="st1"/>
			<path d="M8.24 4.96 A2.06 2.06 -90 0 0 10.3 7.02 A2.06 2.06 -90 0 0 12.36 4.96" class="st1"/>
			<path d="M12.36 4.96 A2.06 2.06 -90 0 0 14.42 7.02 A2.06 2.06 -90 0 0 16.48 4.96" class="st1"/>
		</g>
	</g>
</svg>
