<?xml version="1.0" encoding="UTF-8" standalone="no"?>
<!DOCTYPE svg PUBLIC "-//W3C//DTD SVG 1.1//EN" "http://www.w3.org/Graphics/SVG/1.1/DTD/svg11.dtd">
<svg xmlns="http://www.w3.org/2000/svg" xmlns:xlink="http://www.w3.org/1999/xlink" xmlns:ev="http://www.w3.org/2001/xml-events"
		width="0.168in" height="0.526in" viewBox="0 0 12.1 37.9" xml:space="preserve"
		color-interpolation-filters="sRGB" class="st2">
	<title>Quintuple wall outlet for floorplan</title>

	<style type="text/css">
	<![CDATA[
		.st1 {stroke:#000000;stroke-linecap:round;stroke-linejoin:round;stroke-width:0.24}
		.st2 {fill:none;fill-rule:evenodd;font-size:12px;overflow:visible;stroke-linecap:square;stroke-miterlimit:3}
	]]>
	</style>

	<g>
		<title>Quintuple wall outlet for floorplan</title>
		<g id="1" transform="translate(0.12,-0.12)">
			<title>Quintuple wall outlet for floorplan</title>
			<path d="M11.86 6.02 A3.7 3.7 0 0 1 8.16 2.32 A3.7 3.7 0 0 1 11.86 -1.38" class="st1"/>
			<path d="M0 2.32 L8.16 2.32" class="st1"/>
			<path d="M11.86 13.54 A3.7 3.7 0 0 1 8.16 9.84 A3.7 3.7 0 0 1 11.86 6.14" class="st1"/>
			<path d="M0 9.84 L8.16 9.84" class="st1"/>
			<path d="M11.86 21.06 A3.7 3.7 0 0 1 8.16 17.36 A3.7 3.7 0 0 1 11.86 13.66" class="st1"/>
			<path d="M0 17.36 L8.16 17.36" class="st1"/>
			<path d="M11.86 28.58 A3.7 3.7 0 0 1 8.16 24.88 A3.7 3.7 0 0 1 11.86 21.18" class="st1"/>
			<path d="M0 24.88 L8.16 24.88" class="st1"/>
			<path d="M11.86 36.1 A3.7 3.7 0 0 1 8.16 32.4 A3.7 3.7 0 0 1 11.86 28.7" class="st1"/>
			<path d="M0 32.4 L8.16 32.4" class="st1"/>
		</g>
	</g>
</svg>
