<?xml version="1.0" encoding="UTF-8" standalone="no"?>
<!DOCTYPE svg PUBLIC "-//W3C//DTD SVG 1.1//EN" "http://www.w3.org/Graphics/SVG/1.1/DTD/svg11.dtd">

<svg
  version="1.1"
  viewBox="0.0 0.0 200.5748031496063 201.63517060367454"
  fill="none"
  width="24"
  height="24"
  xmlns:xlink="http://www.w3.org/1999/xlink"
  xmlns="http://www.w3.org/2000/svg">
    <clipPath id="p.0"><path stroke-width="1" d="m0 0l200.5748 0l0 201.63518l-200.5748 0l0 -201.63518z" clip-rule="nonzero"/></clipPath><g clip-path="url(#p.0)"><path fill="#000000" fill-opacity="0.0" d="m0 0l200.5748 0l0 201.63518l-200.5748 0z" fill-rule="evenodd"/><path fill="#000000" fill-opacity="0.0" d="m1.4593176 198.58792l196.47244 0" fill-rule="evenodd"/><path stroke="#000000" stroke-width="5.0" stroke-linejoin="round" stroke-linecap="butt" d="m1.4593176 198.58792l196.47244 0" fill-rule="evenodd"/><path fill="#000000" fill-opacity="0.0" d="m197.93176 198.58792l0 0c0 -52.103546 -20.69806 -102.073074 -57.540833 -138.91586c-36.84278 -36.842773 -86.81231 -57.540833 -138.91586 -57.540833l0 196.45668z" fill-rule="evenodd"/><path fill="#000000" fill-opacity="0.0" d="m197.93176 198.58792l0 0c0 -52.103546 -20.69806 -102.073074 -57.540833 -138.91586c-36.84278 -36.842773 -86.81231 -57.540833 -138.91586 -57.540833" fill-rule="evenodd"/><path stroke="#000000" stroke-width="5.0" stroke-linejoin="round" stroke-linecap="butt" d="m197.93176 198.58792l0 0c0 -52.103546 -20.69806 -102.073074 -57.540833 -138.91586c-36.84278 -36.842773 -86.81231 -57.540833 -138.91586 -57.540833" fill-rule="evenodd"/></g></svg>