<svg xmlns="http://www.w3.org/2000/svg" viewBox="0 0 100 100" width="100" height="100">
  <!-- U-shaped stairs -->
  <g fill="none" stroke="currentColor" stroke-width="1.6" stroke-linecap="round" stroke-linejoin="round">
    <path d="M10 10h30v60h20V10h30v80H10z" fill="currentColor" fill-opacity="0.04"/>
    <line x1="10" y1="20" x2="40" y2="20"/>
    <line x1="10" y1="30" x2="40" y2="30"/>
    <line x1="10" y1="40" x2="40" y2="40"/>
    <line x1="10" y1="50" x2="40" y2="50"/>
    <line x1="10" y1="60" x2="40" y2="60"/>
    <line x1="60" y1="20" x2="90" y2="20"/>
    <line x1="60" y1="30" x2="90" y2="30"/>
    <line x1="60" y1="40" x2="90" y2="40"/>
    <line x1="60" y1="50" x2="90" y2="50"/>
    <line x1="60" y1="60" x2="90" y2="60"/>
    <line x1="40" y1="70" x2="60" y2="70"/>
    <polyline points="24,78 16,70 24,62" stroke-width="2.2"/>
    <line x1="16" y1="70" x2="84" y2="70" stroke-width="2.2"/>
    <polyline points="76,18 84,26 92,18" stroke-width="2.2"/>
  </g>
</svg>
