<svg xmlns="http://www.w3.org/2000/svg" viewBox="0 0 100 100" width="100" height="100">
  <!-- L-shaped stairs -->
  <g fill="none" stroke="currentColor" stroke-width="1.6" stroke-linecap="round" stroke-linejoin="round">
    <path d="M10 10h52v26h28v54H10z" fill="currentColor" fill-opacity="0.04"/>
    <line x1="10" y1="20" x2="62" y2="20"/>
    <line x1="10" y1="30" x2="62" y2="30"/>
    <line x1="10" y1="40" x2="62" y2="40"/>
    <line x1="10" y1="50" x2="62" y2="50"/>
    <line x1="10" y1="60" x2="62" y2="60"/>
    <line x1="10" y1="70" x2="62" y2="70"/>
    <line x1="62" y1="36" x2="90" y2="36"/>
    <line x1="62" y1="46" x2="90" y2="46"/>
    <line x1="62" y1="56" x2="90" y2="56"/>
    <line x1="62" y1="66" x2="90" y2="66"/>
    <line x1="62" y1="76" x2="90" y2="76"/>
    <polyline points="28,80 20,72 28,64" stroke-width="2.2"/>
    <line x1="20" y1="72" x2="72" y2="72" stroke-width="2.2"/>
    <polyline points="72,72 72,28 80,36" stroke-width="2.2"/>
  </g>
</svg>
